<mxfile host="app.diagrams.net" modified="2024-08-02T09:25:00Z" agent="Mozilla/5.0 (Windows NT 10.0; Win64; x64) AppleWebKit/537.36 (KHTML, like Gecko) Chrome/127.0.0.0 Safari/537.36" etag="unique_etag_v5" version="24.7.4" type="device">
  <diagram name="4StateBranchPredictor_Fixed" id="diagram_id_5">
    <mxGraphModel dx="1434" dy="784" grid="1" gridSize="10" guides="1" tooltips="1" connect="1" arrows="1" fold="1" page="1" pageScale="1" pageWidth="1100" pageHeight="850" math="0" shadow="0">
      <root>
        <mxCell id="0" />
        <mxCell id="1" parent="0" />

        <!-- States -->
        <mxCell id="state_st" value="pred&lt;br&gt;taken" style="ellipse;whiteSpace=wrap;html=1;aspect=fixed;fillColor=#dae8fc;strokeColor=#228B22;strokeWidth=3;fontColor=#000000;" vertex="1" parent="1"> <!-- Corrected strokeColor -->
          <mxGeometry x="150" y="100" width="100" height="100" as="geometry" />
        </mxCell>
        <mxCell id="state_wt" value="pred&lt;br&gt;taken" style="ellipse;whiteSpace=wrap;html=1;aspect=fixed;fillColor=#dae8fc;strokeColor=#6c8ebf;fontColor=#000000;" vertex="1" parent="1">
          <mxGeometry x="450" y="100" width="100" height="100" as="geometry" />
        </mxCell>
        <mxCell id="state_wnt" value="pred&lt;br&gt;!taken" style="ellipse;whiteSpace=wrap;html=1;aspect=fixed;fillColor=#f8cecc;strokeColor=#b85450;fontColor=#000000;" vertex="1" parent="1">
          <mxGeometry x="150" y="350" width="100" height="100" as="geometry" />
        </mxCell>
        <mxCell id="state_snt" value="pred&lt;br&gt;!taken" style="ellipse;whiteSpace=wrap;html=1;aspect=fixed;fillColor=#f8cecc;strokeColor=#FFA500;strokeWidth=3;fontColor=#000000;" vertex="1" parent="1"> <!-- Corrected strokeColor -->
          <mxGeometry x="450" y="350" width="100" height="100" as="geometry" />
        </mxCell>

        <!-- Clouds -->
         <mxCell id="cloud_st" value="&amp;quot;strongly&lt;br&gt;taken&amp;quot;" style="ellipse;shape=cloud;whiteSpace=wrap;html=1;strokeColor=#b0b0b0;fillColor=none;fontColor=#808080;" vertex="1" parent="1">
           <mxGeometry x="20" y="60" width="100" height="70" as="geometry" />
         </mxCell>
        <mxCell id="cloud_wt" value="&amp;quot;weakly&lt;br&gt;taken&amp;quot;" style="ellipse;shape=cloud;whiteSpace=wrap;html=1;strokeColor=#b0b0b0;fillColor=none;fontColor=#808080;" vertex="1" parent="1">
           <mxGeometry x="580" y="60" width="100" height="70" as="geometry" />
         </mxCell>
         <mxCell id="cloud_wnt" value="&amp;quot;weakly&lt;br&gt;!taken&amp;quot;" style="ellipse;shape=cloud;whiteSpace=wrap;html=1;strokeColor=#b0b0b0;fillColor=none;fontColor=#808080;" vertex="1" parent="1">
           <mxGeometry x="20" y="420" width="100" height="70" as="geometry" />
         </mxCell>
        <mxCell id="cloud_snt" value="&amp;quot;strongly&lt;br&gt;!taken&amp;quot;" style="ellipse;shape=cloud;whiteSpace=wrap;html=1;strokeColor=#b0b0b0;fillColor=none;fontColor=#808080;" vertex="1" parent="1">
           <mxGeometry x="580" y="420" width="100" height="70" as="geometry" />
         </mxCell>

         <!-- Cloud Connectors (dashed lines) -->
        <mxCell id="conn_st" value="" style="endArrow=none;html=1;rounded=0;dashed=1;strokeColor=#b0b0b0;entryX=0;entryY=0.5;entryDx=0;entryDy=0;exitX=1;exitY=0.5;exitDx=0;exitDy=0;" edge="1" parent="1" source="cloud_st" target="state_st">
          <mxGeometry width="50" height="50" relative="1" as="geometry">
            <mxPoint x="120" y="95" as="sourcePoint"/>
            <mxPoint x="150" y="150" as="targetPoint"/>
          </mxGeometry>
        </mxCell>
        <mxCell id="conn_wt" value="" style="endArrow=none;html=1;rounded=0;dashed=1;strokeColor=#b0b0b0;entryX=1;entryY=0.5;entryDx=0;entryDy=0;exitX=0;exitY=0.5;exitDx=0;exitDy=0;" edge="1" parent="1" source="cloud_wt" target="state_wt">
          <mxGeometry width="50" height="50" relative="1" as="geometry">
            <mxPoint x="580" y="95" as="sourcePoint"/>
            <mxPoint x="550" y="150" as="targetPoint"/>
          </mxGeometry>
        </mxCell>
         <mxCell id="conn_wnt" value="" style="endArrow=none;html=1;rounded=0;dashed=1;strokeColor=#b0b0b0;entryX=0;entryY=0.5;entryDx=0;entryDy=0;exitX=1;exitY=0.5;exitDx=0;exitDy=0;" edge="1" parent="1" source="cloud_wnt" target="state_wnt">
           <mxGeometry width="50" height="50" relative="1" as="geometry">
             <mxPoint x="120" y="455" as="sourcePoint"/>
             <mxPoint x="150" y="400" as="targetPoint"/>
           </mxGeometry>
         </mxCell>
        <mxCell id="conn_snt" value="" style="endArrow=none;html=1;rounded=0;dashed=1;strokeColor=#b0b0b0;entryX=1;entryY=0.5;entryDx=0;entryDy=0;exitX=0;exitY=0.5;exitDx=0;exitDy=0;" edge="1" parent="1" source="cloud_snt" target="state_snt">
           <mxGeometry width="50" height="50" relative="1" as="geometry">
             <mxPoint x="580" y="455" as="sourcePoint"/>
             <mxPoint x="550" y="400" as="targetPoint"/>
           </mxGeometry>
         </mxCell>


        <!-- Transitions (Taken - Green Arrows) -->
        <mxCell id="trans_st_st" value="actually&lt;br&gt;taken" style="edgeStyle=elbowEdgeStyle;elbow=vertical;curved=1;rounded=0;endArrow=classic;html=1;strokeColor=#228B22;fontColor=#0000FF;" edge="1" parent="1" source="state_st" target="state_st">
          <mxGeometry width="50" height="50" relative="1" as="geometry">
            <mxPoint x="100" y="150" as="sourcePoint" />
            <mxPoint x="150" y="100" as="targetPoint" />
            <Array as="points">
              <mxPoint x="100" y="120" />
              <mxPoint x="130" y="80" />
            </Array>
          </mxGeometry>
        </mxCell>
        <mxCell id="trans_wt_st" value="actually&lt;br&gt;taken" style="edgeStyle=elbowEdgeStyle;elbow=horizontal;curved=1;rounded=0;endArrow=classic;html=1;strokeColor=#228B22;fontColor=#0000FF;" edge="1" parent="1" source="state_wt" target="state_st">
          <mxGeometry width="50" height="50" relative="1" as="geometry">
            <mxPoint x="450" y="180" as="sourcePoint" />
            <mxPoint x="250" y="180" as="targetPoint" />
            <Array as="points">
               <mxPoint x="350" y="220"/>
             </Array>
          </mxGeometry>
        </mxCell>
        <mxCell id="trans_wnt_wt" value="actually&lt;br&gt;taken" style="edgeStyle=elbowEdgeStyle;elbow=horizontal;curved=1;rounded=0;endArrow=classic;html=1;strokeColor=#228B22;fontColor=#0000FF;" edge="1" parent="1" source="state_wnt" target="state_wt">
          <mxGeometry width="50" height="50" relative="1" as="geometry">
            <mxPoint x="200" y="350" as="sourcePoint" />
            <mxPoint x="500" y="200" as="targetPoint" />
             <Array as="points">
               <mxPoint x="350" y="280"/>
             </Array>
          </mxGeometry>
        </mxCell>
         <mxCell id="trans_snt_wnt" value="actually&lt;br&gt;taken" style="edgeStyle=elbowEdgeStyle;elbow=horizontal;curved=1;rounded=0;endArrow=classic;html=1;strokeColor=#228B22;fontColor=#0000FF;" edge="1" parent="1" source="state_snt" target="state_wnt">
           <mxGeometry width="50" height="50" relative="1" as="geometry">
             <mxPoint x="450" y="400" as="sourcePoint"/>
             <mxPoint x="250" y="400" as="targetPoint"/>
              <Array as="points">
                <mxPoint x="350" y="470"/>
              </Array>
           </mxGeometry>
         </mxCell>

        <!-- Transitions (Not Taken - Orange Arrows) -->
         <mxCell id="trans_st_wt" value="actually&lt;br&gt;!taken" style="edgeStyle=elbowEdgeStyle;elbow=horizontal;curved=1;rounded=0;endArrow=classic;html=1;strokeColor=#FFA500;fontColor=#FF0000;" edge="1" parent="1" source="state_st" target="state_wt">
           <mxGeometry width="50" height="50" relative="1" as="geometry">
             <mxPoint x="250" y="120" as="sourcePoint"/>
             <mxPoint x="450" y="120" as="targetPoint"/>
             <Array as="points">
                <mxPoint x="350" y="80"/>
              </Array>
           </mxGeometry>
         </mxCell>
         <mxCell id="trans_wt_wnt" value="actually&lt;br&gt;!taken" style="edgeStyle=elbowEdgeStyle;elbow=horizontal;curved=1;rounded=0;endArrow=classic;html=1;strokeColor=#FFA500;fontColor=#FF0000;" edge="1" parent="1" source="state_wt" target="state_wnt">
           <mxGeometry width="50" height="50" relative="1" as="geometry">
             <mxPoint x="500" y="200" as="sourcePoint"/>
             <mxPoint x="200" y="350" as="targetPoint"/>
              <Array as="points">
                <mxPoint x="350" y="300"/>
              </Array>
           </mxGeometry>
         </mxCell>
         <mxCell id="trans_wnt_snt" value="actually&lt;br&gt;!taken" style="edgeStyle=elbowEdgeStyle;elbow=horizontal;curved=1;rounded=0;endArrow=classic;html=1;strokeColor=#FFA500;fontColor=#FF0000;" edge="1" parent="1" source="state_wnt" target="state_snt">
           <mxGeometry width="50" height="50" relative="1" as="geometry">
             <mxPoint x="250" y="370" as="sourcePoint"/>
             <mxPoint x="450" y="370" as="targetPoint"/>
             <Array as="points">
                <mxPoint x="350" y="330"/>
              </Array>
           </mxGeometry>
         </mxCell>
         <mxCell id="trans_snt_snt" value="actually&lt;br&gt;!taken" style="edgeStyle=elbowEdgeStyle;elbow=vertical;curved=1;rounded=0;endArrow=classic;html=1;strokeColor=#FFA500;fontColor=#FF0000;" edge="1" parent="1" source="state_snt" target="state_snt">
           <mxGeometry width="50" height="50" relative="1" as="geometry">
             <mxPoint x="550" y="400" as="sourcePoint"/>
             <mxPoint x="500" y="450" as="targetPoint"/>
              <Array as="points">
                <mxPoint x="600" y="430"/>
                <mxPoint x="570" y="470"/>
              </Array>
           </mxGeometry>
         </mxCell>

      </root>
    </mxGraphModel>
  </diagram>
</mxfile>